{"asset":{"version":"2.0","generator":"babylon.js glTF exporter for maya 2018 v1.2.16","copyright":"2017 (c) BabylonJS"},"extensionsUsed":["KHR_lights"],"scene":0,"scenes":[{"nodes":[0],"extensions":{"KHR_lights":{"light":0}}}],"nodes":[{"mesh":0,"translation":[0.0,0.0,0.0],"rotation":[0.0,0.0,0.0,1.0],"scale":[1.0,1.0,1.0],"name":"platform"}],"meshes":[{"primitives":[{"attributes":{"POSITION":1,"NORMAL":2,"TANGENT":3,"TEXCOORD_0":4},"indices":0,"mode":4,"material":0},{"attributes":{"POSITION":6,"NORMAL":7,"TANGENT":8,"TEXCOORD_0":9},"indices":5,"mode":4,"material":1},{"attributes":{"POSITION":11,"NORMAL":12,"TANGENT":13,"TEXCOORD_0":14},"indices":10,"mode":4,"material":2},{"attributes":{"POSITION":16,"NORMAL":17,"TANGENT":18,"TEXCOORD_0":19},"indices":15,"mode":4,"material":3}],"name":"platform"}],"accessors":[{"bufferView":0,"componentType":5123,"count":2442,"type":"SCALAR","name":"accessorIndices"},{"bufferView":1,"componentType":5126,"count":2442,"max":[220.756622,75.07594,220.7347],"min":[-220.7347,45.1400223,-220.7347],"type":"VEC3","name":"accessorPositions"},{"bufferView":1,"byteOffset":29304,"componentType":5126,"count":2442,"type":"VEC3","name":"accessorNormals"},{"bufferView":2,"componentType":5126,"count":2442,"type":"VEC4","name":"accessorTangents"},{"bufferView":3,"componentType":5126,"count":2442,"type":"VEC2","name":"accessorUVs"},{"bufferView":0,"byteOffset":4884,"componentType":5123,"count":1902,"type":"SCALAR","name":"accessorIndices"},{"bufferView":1,"byteOffset":58608,"componentType":5126,"count":1902,"max":[216.2357,68.83362,216.235687],"min":[-216.235687,-1.42221868,-216.235687],"type":"VEC3","name":"accessorPositions"},{"bufferView":1,"byteOffset":81432,"componentType":5126,"count":1902,"type":"VEC3","name":"accessorNormals"},{"bufferView":2,"byteOffset":39072,"componentType":5126,"count":1902,"type":"VEC4","name":"accessorTangents"},{"bufferView":3,"byteOffset":19536,"componentType":5126,"count":1902,"type":"VEC2","name":"accessorUVs"},{"bufferView":0,"byteOffset":8688,"componentType":5123,"count":9960,"type":"SCALAR","name":"accessorIndices"},{"bufferView":1,"byteOffset":104256,"componentType":5126,"count":9960,"max":[194.884766,71.85499,194.884766],"min":[-194.884766,-4.40974331,-194.885],"type":"VEC3","name":"accessorPositions"},{"bufferView":1,"byteOffset":223776,"componentType":5126,"count":9960,"type":"VEC3","name":"accessorNormals"},{"bufferView":2,"byteOffset":69504,"componentType":5126,"count":9960,"type":"VEC4","name":"accessorTangents"},{"bufferView":3,"byteOffset":34752,"componentType":5126,"count":9960,"type":"VEC2","name":"accessorUVs"},{"bufferView":0,"byteOffset":28608,"componentType":5123,"count":660,"type":"SCALAR","name":"accessorIndices"},{"bufferView":1,"byteOffset":343296,"componentType":5126,"count":660,"max":[108.279305,0.2658677,108.279305],"min":[-108.27932,-54.9051971,-108.279327],"type":"VEC3","name":"accessorPositions"},{"bufferView":1,"byteOffset":351216,"componentType":5126,"count":660,"type":"VEC3","name":"accessorNormals"},{"bufferView":2,"byteOffset":228864,"componentType":5126,"count":660,"type":"VEC4","name":"accessorTangents"},{"bufferView":3,"byteOffset":114432,"componentType":5126,"count":660,"type":"VEC2","name":"accessorUVs"}],"bufferViews":[{"buffer":0,"byteLength":29928,"name":"bufferViewScalar"},{"buffer":0,"byteOffset":29928,"byteLength":359136,"byteStride":12,"name":"bufferViewFloatVec3"},{"buffer":0,"byteOffset":389064,"byteLength":239424,"byteStride":16,"name":"bufferViewFloatVec4"},{"buffer":0,"byteOffset":628488,"byteLength":119712,"byteStride":8,"name":"bufferViewFloatVec2"}],"buffers":[{"uri":"platform.bin","byteLength":748200}],"materials":[{"pbrMetallicRoughness":{"baseColorFactor":[0.867026269,0.87522155,0.490042478,1.0],"metallicFactor":0.5734973,"roughnessFactor":0.895735562},"emissiveFactor":[0.0,0.0,0.0],"alphaMode":"OPAQUE","name":"jumpad_octo_new:phongE1SG1"},{"pbrMetallicRoughness":{"baseColorFactor":[0.9067909,0.587384939,0.931901157,0.8211382],"metallicFactor":0.6454508,"roughnessFactor":0.5678072},"emissiveFactor":[0.0,0.0,0.0],"alphaMode":"BLEND","name":"platform_glass_mat"},{"pbrMetallicRoughness":{"baseColorFactor":[0.63281256,0.589895844,0.360416681,1.0],"metallicFactor":0.0,"roughnessFactor":0.9},"emissiveFactor":[0.0,0.0,0.0],"alphaMode":"OPAQUE","name":"lambert1"},{"pbrMetallicRoughness":{"baseColorFactor":[0.4194758,0.8878916,0.770197034,0.723577261],"metallicFactor":0.6198817,"roughnessFactor":0.3},"emissiveFactor":[0.0,0.0,0.0],"alphaMode":"BLEND","name":"platform_glass_mat_2"}],"extensions":{"KHR_lights":{"lights":[{"color":[1.0,1.0,1.0],"intensity":1.0,"type":"ambient"}]}}}